<?xml version="1.0" encoding="UTF-8" standalone="no"?>
<!-- Created with Inkscape (http://www.inkscape.org/) -->

<svg
   xmlns:dc="http://purl.org/dc/elements/1.1/"
   xmlns:cc="http://creativecommons.org/ns#"
   xmlns:rdf="http://www.w3.org/1999/02/22-rdf-syntax-ns#"
   xmlns:svg="http://www.w3.org/2000/svg"
   xmlns="http://www.w3.org/2000/svg"
   version="1.1"
   width="130.30968"
   height="130.30968"
   id="svg2">
  <defs
     id="defs4" />
  <metadata
     id="metadata7">
    <rdf:RDF>
      <cc:Work
         rdf:about="">
        <dc:format>image/svg+xml</dc:format>
        <dc:type
           rdf:resource="http://purl.org/dc/dcmitype/StillImage" />
        <dc:title></dc:title>
      </cc:Work>
    </rdf:RDF>
  </metadata>
  <g
     id="text3071"
     style="font-size:160.68930054px;font-style:normal;font-weight:bold;line-height:125%;letter-spacing:0px;word-spacing:0px;fill:#ff1a52;fill-opacity:1;stroke:none;font-family:Sans;-inkscape-font-specification:Sans Bold">
    <path
       d="m 12.176654,45.667476 c 0,-1.452299 5.809181,-14.765038 5.809181,-14.765038 l 24.204988,7.745595 -0.24205,-24.68908 16.943487,0.4841 0,24.689078 L 81.402891,32.354738 87.21209,45.667476 63.733257,53.89717 77.772145,74.713454 65.669655,83.911349 49.452317,64.063263 34.687278,83.185196 22.10069,74.229354 36.381628,55.10742 z"
       id="path3877"
       style="fill:#f05077;fill-opacity:1;stroke:none" />
  </g>
  <g
     id="text3879"
     style="font-size:40px;font-style:normal;font-weight:normal;line-height:125%;letter-spacing:0px;word-spacing:0px;fill:#f05077;fill-opacity:1;stroke:none;font-family:Sans">
    <path
       d="m 81.429192,104.70144 1.992187,0 c 1.861966,10e-6 3.255194,-0.36457 4.179688,-1.09375 0.924462,-0.74217 1.386701,-1.81639 1.386718,-3.22266 -1.7e-5,-1.419247 -0.390641,-2.467423 -1.171875,-3.144529 -0.768244,-0.67706 -1.97918,-1.015601 -3.632812,-1.015625 l -2.753906,0 0,8.476564 m 13.671875,-4.53125 c -2.4e-5,3.07293 -0.963564,5.42319 -2.890625,7.05078 -1.914081,1.62762 -4.641943,2.44142 -8.183594,2.44141 l -2.597656,0 0,10.15625 -6.054688,0 0,-28.554691 9.121094,0 c 3.463525,2.8e-5 6.093731,0.748726 7.890625,2.246094 1.809873,1.484399 2.71482,3.704449 2.714844,6.660157"
       id="path3884"
       style="font-variant:normal;font-weight:bold;font-stretch:normal;fill:#f05077;font-family:Open Sans;-inkscape-font-specification:Open Sans Bold" />
    <path
       d="m 108.92919,101.57644 c 2.7604,2e-5 4.95441,0.77476 6.58203,2.32422 1.64061,1.54949 2.46092,3.67188 2.46094,6.36719 -2e-5,3.19011 -0.98309,5.64453 -2.94922,7.36328 -1.96616,1.71875 -4.77866,2.57812 -8.4375,2.57812 -3.17709,0 -5.74219,-0.51432 -7.695311,-1.54297 l 0,-5.21484 c 1.028643,0.54688 2.226561,0.9961 3.593751,1.34766 1.36718,0.33854 2.66275,0.50781 3.88672,0.50781 3.68488,0 5.52733,-1.51041 5.52734,-4.53125 -1e-5,-2.87759 -1.90756,-4.3164 -5.72265,-4.31641 -0.69012,1e-5 -1.45184,0.0716 -2.28516,0.21485 -0.83334,0.13022 -1.51042,0.27345 -2.03125,0.42968 l -2.402345,-1.28906 1.074215,-14.550781 15.48829,0 0,5.117187 -10.19532,0 -0.52734,5.605474 0.68359,-0.13672 c 0.79426,-0.18228 1.77734,-0.27342 2.94922,-0.27344"
       id="path3886"
       style="font-variant:normal;font-weight:bold;font-stretch:normal;fill:#f05077;font-family:Open Sans;-inkscape-font-specification:Open Sans Bold" />
  </g>
</svg>
