<?xml version="1.0" encoding="UTF-8" standalone="no"?>
<!-- Created with Inkscape (http://www.inkscape.org/) -->

<svg
   xmlns:dc="http://purl.org/dc/elements/1.1/"
   xmlns:cc="http://creativecommons.org/ns#"
   xmlns:rdf="http://www.w3.org/1999/02/22-rdf-syntax-ns#"
   xmlns:svg="http://www.w3.org/2000/svg"
   xmlns="http://www.w3.org/2000/svg"
   xmlns:xlink="http://www.w3.org/1999/xlink"
   version="1.1"
   width="130.30968"
   height="130.30968"
   id="svg2">
  <defs
     id="defs4">
    <linearGradient
       x1="55.549179"
       y1="77.070274"
       x2="110.14919"
       y2="131.85291"
       id="linearGradient9521"
       xlink:href="#linearGradient9515"
       gradientUnits="userSpaceOnUse" />
    <linearGradient
       id="linearGradient9515">
      <stop
         id="stop9517"
         style="stop-color:#387eb8;stop-opacity:1"
         offset="0" />
      <stop
         id="stop9519"
         style="stop-color:#366994;stop-opacity:1"
         offset="1" />
    </linearGradient>
    <linearGradient
       x1="89.136749"
       y1="111.92053"
       x2="147.77737"
       y2="168.1012"
       id="linearGradient11307"
       xlink:href="#linearGradient11301"
       gradientUnits="userSpaceOnUse" />
    <linearGradient
       id="linearGradient11301">
      <stop
         id="stop11303"
         style="stop-color:#ffe052;stop-opacity:1"
         offset="0" />
      <stop
         id="stop11305"
         style="stop-color:#ffc331;stop-opacity:1"
         offset="1" />
    </linearGradient>
    <linearGradient
       x1="89.136749"
       y1="111.92053"
       x2="147.77737"
       y2="168.1012"
       id="linearGradient6481"
       xlink:href="#linearGradient11301"
       gradientUnits="userSpaceOnUse" />
  </defs>
  <metadata
     id="metadata7">
    <rdf:RDF>
      <cc:Work
         rdf:about="">
        <dc:format>image/svg+xml</dc:format>
        <dc:type
           rdf:resource="http://purl.org/dc/dcmitype/StillImage" />
        <dc:title></dc:title>
      </cc:Work>
    </rdf:RDF>
  </metadata>
  <g
     transform="matrix(0.88810446,0,0,0.88810446,-22.958874,-42.989705)"
     id="g1894">
    <path
       d="M 99.75,67.46875 C 71.718268,67.468752 73.46875,79.625 73.46875,79.625 L 73.5,92.21875 l 26.75,0 0,3.78125 -37.375,0 c 0,0 -17.9375,-2.034276 -17.9375,26.25 -2e-6,28.28427 15.65625,27.28125 15.65625,27.28125 l 9.34375,0 0,-13.125 c 0,0 -0.503652,-15.65625 15.40625,-15.65625 15.9099,0 26.53125,0 26.53125,0 0,0 14.90625,0.24096 14.90625,-14.40625 0,-14.647206 0,-24.21875 0,-24.21875 0,-2e-6 2.26318,-14.65625 -27.03125,-14.65625 z M 85,75.9375 c 2.661429,-2e-6 4.8125,2.151071 4.8125,4.8125 2e-6,2.661429 -2.151071,4.8125 -4.8125,4.8125 -2.661429,2e-6 -4.8125,-2.151071 -4.8125,-4.8125 -2e-6,-2.661429 2.151071,-4.8125 4.8125,-4.8125 z"
       id="path8615"
       style="color:#000000;fill:url(#linearGradient9521);fill-opacity:1;fill-rule:nonzero;stroke:none;stroke-width:1;marker:none;visibility:visible;display:inline;overflow:visible" />
    <path
       d="m 100.5461,177.31485 c 28.03174,0 26.28125,-12.15625 26.28125,-12.15625 l -0.0312,-12.59375 -26.75,0 0,-3.78125 37.375,0 c 0,0 17.9375,2.03427 17.9375,-26.25001 10e-6,-28.284267 -15.65625,-27.281247 -15.65625,-27.281247 l -9.34375,0 0,13.124997 c 0,0 0.50366,15.65625 -15.40625,15.65625 -15.909902,0 -26.531252,0 -26.531252,0 0,0 -14.90625,-0.24096 -14.90625,14.40626 0,14.6472 0,24.21875 0,24.21875 0,0 -2.26318,14.65625 27.031252,14.65625 z m 14.75,-8.46875 c -2.66143,0 -4.8125,-2.15107 -4.8125,-4.8125 0,-2.66143 2.15107,-4.8125 4.8125,-4.8125 2.66143,0 4.8125,2.15107 4.8125,4.8125 1e-5,2.66143 -2.15107,4.8125 -4.8125,4.8125 z"
       id="path8620"
       style="color:#000000;fill:url(#linearGradient6481);fill-opacity:1;fill-rule:nonzero;stroke:none;stroke-width:1;marker:none;visibility:visible;display:inline;overflow:visible" />
  </g>
</svg>
