<?xml version="1.0" encoding="UTF-8" standalone="no"?>
<!-- Created with Inkscape (http://www.inkscape.org/) -->

<svg
   xmlns:dc="http://purl.org/dc/elements/1.1/"
   xmlns:cc="http://creativecommons.org/ns#"
   xmlns:rdf="http://www.w3.org/1999/02/22-rdf-syntax-ns#"
   xmlns:svg="http://www.w3.org/2000/svg"
   xmlns="http://www.w3.org/2000/svg"
   version="1.1"
   width="130.30968"
   height="130.30968"
   id="svg2">
  <defs
     id="defs4" />
  <metadata
     id="metadata7">
    <rdf:RDF>
      <cc:Work
         rdf:about="">
        <dc:format>image/svg+xml</dc:format>
        <dc:type
           rdf:resource="http://purl.org/dc/dcmitype/StillImage" />
        <dc:title></dc:title>
      </cc:Work>
    </rdf:RDF>
  </metadata>
  <g
     transform="translate(-9.8056612,-564.4585)"
     id="layer1">
    <rect
       width="130.30968"
       height="130.30968"
       x="9.0913725"
       y="416.60135"
       id="rect2985"
       style="opacity:0.58608063;fill:#ff9a00;fill-opacity:1;stroke:none" />
    <g
       transform="translate(0,-147.85714)"
       id="text2987"
       style="font-size:40px;font-style:normal;font-weight:normal;line-height:125%;letter-spacing:0px;word-spacing:0px;fill:#000000;fill-opacity:1;stroke:none;font-family:Sans">
      <path
         d="m 88.45285,683.4328 c -1.367186,-1e-5 -2.558591,-0.14324 -3.574218,-0.42969 l 0,-5.03906 c 1.041668,0.26041 1.992188,0.39062 2.851562,0.39063 1.328124,-10e-6 2.278644,-0.41667 2.851563,-1.25 0.572913,-0.82032 0.859371,-2.10938 0.859375,-3.86719 l 0,-26.75781 6.054687,0 0,26.71875 c -1e-5,3.33333 -0.761728,5.87239 -2.285156,7.61718 -1.523443,1.74479 -3.776045,2.61718 -6.757813,2.61719"
         id="path3908"
         style="font-weight:bold;font-family:Open Sans;-inkscape-font-specification:Open Sans Bold" />
      <path
         d="m 121.57785,667.10468 c -2e-5,2.57813 -0.93101,4.60937 -2.79297,6.09375 -1.84897,1.48437 -4.42709,2.22656 -7.73437,2.22656 -3.04689,0 -5.7422,-0.57292 -8.08594,-1.71875 l 0,-5.625 c 1.92708,0.85938 3.55468,1.46485 4.88281,1.8164 1.34114,0.35157 2.5651,0.52735 3.67188,0.52735 1.32811,0 2.34373,-0.2539 3.04687,-0.76172 0.71613,-0.50781 1.07421,-1.26302 1.07422,-2.26563 -1e-5,-0.55988 -0.15626,-1.05467 -0.46875,-1.48437 -0.31251,-0.4427 -0.77475,-0.86588 -1.38672,-1.26953 -0.59897,-0.40364 -1.82944,-1.04817 -3.6914,-1.9336 -1.7448,-0.8203 -3.0534,-1.60805 -3.92579,-2.36328 -0.8724,-0.75519 -1.56901,-1.6341 -2.08984,-2.63672 -0.52084,-1.00258 -0.78125,-2.17446 -0.78125,-3.51562 0,-2.52602 0.85286,-4.51169 2.55859,-5.95703 1.71875,-1.44529 4.08854,-2.16794 7.10938,-2.16797 1.48436,3e-5 2.89712,0.17581 4.23828,0.52734 1.35415,0.35159 2.76691,0.84638 4.23828,1.48438 l -1.95312,4.70703 c -1.52346,-0.62498 -2.78648,-1.06118 -3.78907,-1.30859 -0.98959,-0.24738 -1.96615,-0.37107 -2.92968,-0.3711 -1.14585,3e-5 -2.02475,0.26695 -2.63672,0.80078 -0.61199,0.53388 -0.91798,1.23049 -0.91797,2.08985 -10e-6,0.53387 0.12369,1.00262 0.37109,1.40625 0.24739,0.39064 0.63801,0.77475 1.17188,1.15234 0.54686,0.3646 1.82941,1.02866 3.84765,1.99219 2.66926,1.27605 4.49868,2.55861 5.48829,3.84765 0.98956,1.27606 1.48435,2.84507 1.48437,4.70704"
         id="path3910"
         style="font-weight:bold;font-family:Open Sans;-inkscape-font-specification:Open Sans Bold" />
    </g>
    <rect
       width="130.30968"
       height="130.30968"
       x="9.8056612"
       y="564.4585"
       id="rect2997"
       style="fill:#696eff;fill-opacity:1;stroke:none" />
    <g
       transform="translate(-187.85098,0)"
       id="text2999"
       style="font-size:40px;font-style:normal;font-weight:normal;line-height:125%;letter-spacing:0px;word-spacing:0px;fill:#ffffff;fill-opacity:1;stroke:none;font-family:Sans">
      <path
         d="m 253.19058,653.19843 0,3.02734 -3.41797,0.87891 c 0.62498,0.97657 0.93748,2.07032 0.9375,3.28125 -2e-5,2.34376 -0.82033,4.17318 -2.46093,5.48828 -1.62762,1.30209 -3.89325,1.95313 -6.79688,1.95312 l -1.07422,-0.0586 -0.8789,-0.0977 c -0.61199,0.46876 -0.91798,0.98959 -0.91797,1.5625 -1e-5,0.85938 1.09374,1.28907 3.28125,1.28906 l 3.71093,0 c 2.39582,10e-6 4.21874,0.51433 5.46875,1.54297 1.263,1.02865 1.89451,2.53907 1.89454,4.53125 -3e-5,2.55208 -1.06773,4.53125 -3.20313,5.9375 -2.12241,1.40624 -5.17579,2.10937 -9.16016,2.10938 -3.04688,-10e-6 -5.3776,-0.53387 -6.99218,-1.60156 -1.60157,-1.0547 -2.40235,-2.53907 -2.40235,-4.45313 0,-1.31511 0.41016,-2.41537 1.23047,-3.30078 0.82031,-0.88542 2.02474,-1.51693 3.61328,-1.89453 -0.61198,-0.26042 -1.14583,-0.68359 -1.60156,-1.26953 -0.45573,-0.59896 -0.6836,-1.23047 -0.68359,-1.89453 -1e-5,-0.83333 0.24088,-1.52344 0.72265,-2.07032 0.48177,-0.55989 1.17838,-1.10676 2.08985,-1.64062 -1.14584,-0.49478 -2.0573,-1.28905 -2.73438,-2.38281 -0.66406,-1.09374 -0.99609,-2.3828 -0.99609,-3.86719 0,-2.3828 0.77474,-4.22524 2.32422,-5.52735 1.54947,-1.30206 3.76301,-1.9531 6.64062,-1.95312 0.61197,2e-5 1.33463,0.0586 2.16797,0.17578 0.84634,0.10419 1.38671,0.18231 1.62109,0.23438 l 7.61719,0 m -16.85547,24.92187 c 0,0.82031 0.39062,1.46484 1.17188,1.93359 0.79426,0.46875 1.90103,0.70312 3.32031,0.70313 2.13541,-10e-6 3.80858,-0.29298 5.01953,-0.87891 1.21092,-0.58594 1.81639,-1.38672 1.81641,-2.40234 -2e-5,-0.82032 -0.35809,-1.38672 -1.07422,-1.69922 -0.71616,-0.3125 -1.82293,-0.46875 -3.32031,-0.46875 l -3.08594,0 c -1.09376,0 -2.01173,0.25391 -2.75391,0.76172 -0.72917,0.52083 -1.09375,1.20442 -1.09375,2.05078 m 2.16797,-17.77344 c -1e-5,1.18491 0.26692,2.12241 0.80078,2.8125 0.54687,0.69012 1.37369,1.03517 2.48047,1.03516 1.11978,10e-6 1.94009,-0.34504 2.46094,-1.03516 0.52082,-0.69009 0.78124,-1.62759 0.78125,-2.8125 -1e-5,-2.63019 -1.08074,-3.94529 -3.24219,-3.94531 -2.18751,2e-5 -3.28126,1.31512 -3.28125,3.94531"
         id="path3940"
         style="font-weight:bold;fill:#ffffff;font-family:Open Sans;-inkscape-font-specification:Open Sans Bold" />
      <path
         d="m 262.72183,675.03436 -5.95703,0 0,-30.39062 5.95703,0 0,30.39062"
         id="path3942"
         style="font-weight:bold;fill:#ffffff;font-family:Open Sans;-inkscape-font-specification:Open Sans Bold" />
      <path
         d="m 284.18668,668.54999 c -2e-5,2.23959 -0.78127,3.94531 -2.34375,5.11719 -1.5495,1.17187 -3.87371,1.75781 -6.97266,1.75781 -1.58855,0 -2.94271,-0.11068 -4.0625,-0.33203 -1.1198,-0.20834 -2.16797,-0.52084 -3.14453,-0.9375 l 0,-4.92188 c 1.10677,0.52084 2.35025,0.95704 3.73047,1.3086 1.39322,0.35156 2.61718,0.52734 3.67187,0.52734 2.16145,0 3.24218,-0.625 3.24219,-1.875 -1e-5,-0.46874 -0.14324,-0.84635 -0.42969,-1.13281 -0.28647,-0.29948 -0.78126,-0.63151 -1.48437,-0.9961 -0.70314,-0.37759 -1.64064,-0.81379 -2.8125,-1.30859 -1.6797,-0.70312 -2.91667,-1.35416 -3.71094,-1.95313 -0.78125,-0.59894 -1.35417,-1.28254 -1.71875,-2.05078 -0.35156,-0.78123 -0.52735,-1.73826 -0.52734,-2.87109 -1e-5,-1.94009 0.74869,-3.43748 2.24609,-4.49219 1.51041,-1.06769 3.64583,-1.60154 6.40625,-1.60156 2.6302,2e-5 5.18879,0.57294 7.67578,1.71875 l -1.79687,4.29687 c -1.09377,-0.46873 -2.1159,-0.85284 -3.06641,-1.15234 -0.95053,-0.29946 -1.92058,-0.4492 -2.91016,-0.44922 -1.75782,2e-5 -2.63672,0.47528 -2.63672,1.42578 0,0.53387 0.27994,0.99611 0.83985,1.38672 0.57291,0.39064 1.81639,0.97007 3.73047,1.73828 1.70571,0.69012 2.95571,1.33465 3.75,1.9336 0.79425,0.59897 1.38019,1.28907 1.75781,2.07031 0.37759,0.78126 0.56639,1.71225 0.56641,2.79297"
         id="path3944"
         style="font-weight:bold;fill:#ffffff;font-family:Open Sans;-inkscape-font-specification:Open Sans Bold" />
      <path
         d="m 294.83121,675.03436 -5.95703,0 0,-30.39062 5.95703,0 0,30.39062"
         id="path3946"
         style="font-weight:bold;fill:#ffffff;font-family:Open Sans;-inkscape-font-specification:Open Sans Bold" />
    </g>
    <g
       transform="matrix(0.87561045,0,0,0.87561045,-138.28971,75.388251)"
       id="g3787">
      <rect
         width="10.240221"
         height="10.240221"
         x="208.98862"
         y="580.68176"
         id="rect3775"
         style="fill:#8f89ff;fill-opacity:1;stroke:none" />
      <rect
         width="10.240221"
         height="10.240221"
         x="209.00439"
         y="600.86035"
         id="rect3777"
         style="fill:#8f89ff;fill-opacity:1;stroke:none" />
      <rect
         width="10.240221"
         height="10.240221"
         x="209.01094"
         y="621.20636"
         id="rect3779"
         style="fill:#8f89ff;fill-opacity:1;stroke:none" />
      <rect
         width="10.240221"
         height="10.240221"
         x="267.38147"
         y="580.68176"
         id="rect3781"
         style="fill:#8f89ff;fill-opacity:1;stroke:none" />
      <rect
         width="10.240221"
         height="10.240221"
         x="267.39725"
         y="600.86035"
         id="rect3783"
         style="fill:#8f89ff;fill-opacity:1;stroke:none" />
      <rect
         width="10.240221"
         height="10.240221"
         x="267.65634"
         y="620.70129"
         id="rect3785"
         style="fill:#8f89ff;fill-opacity:1;stroke:none" />
      <rect
         width="50.760166"
         height="50.760166"
         x="218.19295"
         y="580.68964"
         id="rect3773"
         style="fill:#c6cbff;fill-opacity:1;stroke:none" />
      <rect
         width="41.668793"
         height="41.668793"
         x="222.73863"
         y="585.23535"
         id="rect3771"
         style="fill:#ffffff;fill-opacity:1;stroke:none" />
    </g>
    <rect
       width="130.30968"
       height="130.30968"
       x="349.1929"
       y="564.4585"
       id="rect3797"
       style="fill:#696eff;fill-opacity:1;stroke:none" />
    <g
       transform="translate(-23.14685,0)"
       id="text3799"
       style="font-size:40px;font-style:normal;font-weight:normal;line-height:125%;letter-spacing:0px;word-spacing:0px;fill:#ffffff;fill-opacity:1;stroke:none;font-family:Sans">
      <path
         d="m 427.93497,653.19843 0,3.02734 -3.41797,0.87891 c 0.62498,0.97657 0.93748,2.07032 0.9375,3.28125 -2e-5,2.34376 -0.82033,4.17318 -2.46094,5.48828 -1.62762,1.30209 -3.89324,1.95313 -6.79687,1.95312 l -1.07422,-0.0586 -0.87891,-0.0977 c -0.61199,0.46876 -0.91798,0.98959 -0.91797,1.5625 -10e-6,0.85938 1.09374,1.28907 3.28125,1.28906 l 3.71094,0 c 2.39582,10e-6 4.21873,0.51433 5.46875,1.54297 1.263,1.02865 1.89451,2.53907 1.89453,4.53125 -2e-5,2.55208 -1.06773,4.53125 -3.20312,5.9375 -2.12242,1.40624 -5.1758,2.10937 -9.16016,2.10938 -3.04688,-10e-6 -5.37761,-0.53387 -6.99219,-1.60156 -1.60156,-1.0547 -2.40234,-2.53907 -2.40234,-4.45313 0,-1.31511 0.41015,-2.41537 1.23047,-3.30078 0.82031,-0.88542 2.02473,-1.51693 3.61328,-1.89453 -0.61199,-0.26042 -1.14584,-0.68359 -1.60156,-1.26953 -0.45574,-0.59896 -0.6836,-1.23047 -0.6836,-1.89453 0,-0.83333 0.24088,-1.52344 0.72266,-2.07032 0.48177,-0.55989 1.17838,-1.10676 2.08984,-1.64062 -1.14584,-0.49478 -2.05729,-1.28905 -2.73437,-2.38281 -0.66407,-1.09374 -0.9961,-2.3828 -0.9961,-3.86719 0,-2.3828 0.77474,-4.22524 2.32422,-5.52735 1.54948,-1.30206 3.76302,-1.9531 6.64063,-1.95312 0.61196,2e-5 1.33462,0.0586 2.16797,0.17578 0.84634,0.10419 1.3867,0.18231 1.62109,0.23438 l 7.61719,0 M 411.0795,678.1203 c -10e-6,0.82031 0.39062,1.46484 1.17187,1.93359 0.79427,0.46875 1.90104,0.70312 3.32032,0.70313 2.1354,-10e-6 3.80858,-0.29298 5.01953,-0.87891 1.21092,-0.58594 1.81639,-1.38672 1.8164,-2.40234 -1e-5,-0.82032 -0.35809,-1.38672 -1.07422,-1.69922 -0.71616,-0.3125 -1.82293,-0.46875 -3.32031,-0.46875 l -3.08594,0 c -1.09375,0 -2.01172,0.25391 -2.7539,0.76172 -0.72917,0.52083 -1.09376,1.20442 -1.09375,2.05078 m 2.16797,-17.77344 c -1e-5,1.18491 0.26692,2.12241 0.80078,2.8125 0.54686,0.69012 1.37369,1.03517 2.48047,1.03516 1.11978,10e-6 1.94009,-0.34504 2.46093,-1.03516 0.52082,-0.69009 0.78124,-1.62759 0.78125,-2.8125 -10e-6,-2.63019 -1.08074,-3.94529 -3.24218,-3.94531 -2.18751,2e-5 -3.28126,1.31512 -3.28125,3.94531"
         id="path3931"
         style="font-weight:bold;fill:#ffffff;font-family:Open Sans;-inkscape-font-specification:Open Sans Bold" />
      <path
         d="m 437.46622,675.03436 -5.95703,0 0,-30.39062 5.95703,0 0,30.39062"
         id="path3933"
         style="font-weight:bold;fill:#ffffff;font-family:Open Sans;-inkscape-font-specification:Open Sans Bold" />
      <path
         d="m 458.93106,668.54999 c -2e-5,2.23959 -0.78127,3.94531 -2.34375,5.11719 -1.54949,1.17187 -3.87371,1.75781 -6.97266,1.75781 -1.58854,0 -2.94271,-0.11068 -4.0625,-0.33203 -1.11979,-0.20834 -2.16797,-0.52084 -3.14453,-0.9375 l 0,-4.92188 c 1.10677,0.52084 2.35026,0.95704 3.73047,1.3086 1.39322,0.35156 2.61718,0.52734 3.67188,0.52734 2.16144,0 3.24217,-0.625 3.24218,-1.875 -10e-6,-0.46874 -0.14324,-0.84635 -0.42968,-1.13281 -0.28647,-0.29948 -0.78126,-0.63151 -1.48438,-0.9961 -0.70313,-0.37759 -1.64063,-0.81379 -2.8125,-1.30859 -1.67969,-0.70312 -2.91667,-1.35416 -3.71094,-1.95313 -0.78125,-0.59894 -1.35416,-1.28254 -1.71875,-2.05078 -0.35156,-0.78123 -0.52734,-1.73826 -0.52734,-2.87109 0,-1.94009 0.7487,-3.43748 2.24609,-4.49219 1.51042,-1.06769 3.64583,-1.60154 6.40625,-1.60156 2.6302,2e-5 5.18879,0.57294 7.67579,1.71875 l -1.79688,4.29687 c -1.09376,-0.46873 -2.1159,-0.85284 -3.06641,-1.15234 -0.95053,-0.29946 -1.92058,-0.4492 -2.91015,-0.44922 -1.75782,2e-5 -2.63673,0.47528 -2.63672,1.42578 -1e-5,0.53387 0.27994,0.99611 0.83984,1.38672 0.57291,0.39064 1.8164,0.97007 3.73047,1.73828 1.70572,0.69012 2.95572,1.33465 3.75,1.9336 0.79426,0.59897 1.38019,1.28907 1.75781,2.07031 0.37759,0.78126 0.56639,1.71225 0.56641,2.79297"
         id="path3935"
         style="font-weight:bold;fill:#ffffff;font-family:Open Sans;-inkscape-font-specification:Open Sans Bold" />
      <path
         d="m 469.57559,675.03436 -5.95703,0 0,-30.39062 5.95703,0 0,30.39062"
         id="path3937"
         style="font-weight:bold;fill:#ffffff;font-family:Open Sans;-inkscape-font-specification:Open Sans Bold" />
    </g>
    <g
       transform="matrix(0.87561045,0,0,0.87561045,202.52611,75.388251)"
       id="g3803">
      <rect
         width="10.240221"
         height="10.240221"
         x="208.98862"
         y="580.68176"
         id="rect3805"
         style="fill:#8f89ff;fill-opacity:1;stroke:none" />
      <rect
         width="10.240221"
         height="10.240221"
         x="209.00439"
         y="600.86035"
         id="rect3807"
         style="fill:#8f89ff;fill-opacity:1;stroke:none" />
      <rect
         width="10.240221"
         height="10.240221"
         x="209.01094"
         y="621.20636"
         id="rect3809"
         style="fill:#8f89ff;fill-opacity:1;stroke:none" />
      <rect
         width="10.240221"
         height="10.240221"
         x="267.38147"
         y="580.68176"
         id="rect3811"
         style="fill:#8f89ff;fill-opacity:1;stroke:none" />
      <rect
         width="10.240221"
         height="10.240221"
         x="267.39725"
         y="600.86035"
         id="rect3813"
         style="fill:#8f89ff;fill-opacity:1;stroke:none" />
      <rect
         width="10.240221"
         height="10.240221"
         x="267.65634"
         y="620.70129"
         id="rect3815"
         style="fill:#8f89ff;fill-opacity:1;stroke:none" />
      <rect
         width="50.760166"
         height="50.760166"
         x="218.19295"
         y="580.68964"
         id="rect3817"
         style="fill:#c6cbff;fill-opacity:1;stroke:none" />
      <rect
         width="41.668793"
         height="41.668793"
         x="222.73863"
         y="585.23535"
         id="rect3819"
         style="fill:#ffffff;fill-opacity:1;stroke:none" />
    </g>
    <g
       transform="translate(-172.85714,0)"
       id="text3821"
       style="font-size:9.73504162px;font-style:normal;font-weight:normal;line-height:125%;letter-spacing:0px;word-spacing:0px;fill:#4907ff;fill-opacity:1;stroke:none;font-family:Sans">
      <path
         d="m 241.43902,609.42255 -0.77005,0 0,-4.95309 c -1e-5,-0.41196 0.0127,-0.80174 0.038,-1.16934 -0.0665,0.0666 -0.14102,0.13627 -0.22341,0.20915 -0.0824,0.0729 -0.4595,0.38186 -1.13132,0.92692 l -0.4183,-0.54189 1.83958,-1.42128 0.66548,0 0,6.94953"
         id="path3922"
         style="font-variant:normal;font-stretch:normal;font-family:Open Sans;-inkscape-font-specification:Open Sans" />
      <path
         d="m 244.33387,608.91868 c 0,-0.21232 0.0475,-0.37235 0.1426,-0.4801 0.0982,-0.11091 0.23767,-0.16636 0.4183,-0.16637 0.1838,10e-6 0.3264,0.0555 0.42781,0.16637 0.10457,0.10775 0.15686,0.26778 0.15686,0.4801 0,0.20598 -0.0523,0.36443 -0.15686,0.47535 -0.10458,0.11091 -0.24718,0.16637 -0.42781,0.16637 -0.16162,0 -0.2963,-0.0491 -0.40404,-0.14736 -0.10458,-0.10141 -0.15686,-0.26619 -0.15686,-0.49436"
         id="path3924"
         style="font-variant:normal;font-stretch:normal;font-family:Open Sans;-inkscape-font-specification:Open Sans" />
      <path
         d="m 251.27864,605.93828 c -1e-5,1.20103 -0.19014,2.09785 -0.57041,2.69044 -0.37711,0.5926 -0.95545,0.8889 -1.73501,0.8889 -0.74787,0 -1.3167,-0.30264 -1.70648,-0.90791 -0.38978,-0.60844 -0.58468,-1.49892 -0.58468,-2.67143 0,-1.21054 0.18856,-2.10894 0.56566,-2.6952 0.37711,-0.58625 0.95227,-0.87938 1.7255,-0.87939 0.75421,10e-6 1.32621,0.30581 1.71599,0.91741 0.39295,0.61162 0.58942,1.49734 0.58943,2.65718 m -3.798,0 c 0,1.0109 0.11884,1.74768 0.35651,2.21034 0.23767,0.4595 0.61636,0.68925 1.13607,0.68925 0.52605,0 0.90632,-0.23291 1.14083,-0.69875 0.23767,-0.46901 0.3565,-1.20262 0.35651,-2.20084 -1e-5,-0.99822 -0.11884,-1.72867 -0.35651,-2.19134 -0.23451,-0.46583 -0.61478,-0.69875 -1.14083,-0.69875 -0.51971,0 -0.8984,0.22975 -1.13607,0.68924 -0.23767,0.45634 -0.35651,1.18995 -0.35651,2.20085"
         id="path3926"
         style="font-variant:normal;font-stretch:normal;font-family:Open Sans;-inkscape-font-specification:Open Sans" />
      <path
         d="m 256.84967,605.93828 c -1e-5,1.20103 -0.19014,2.09785 -0.57041,2.69044 -0.37711,0.5926 -0.95545,0.8889 -1.73501,0.8889 -0.74787,0 -1.3167,-0.30264 -1.70648,-0.90791 -0.38979,-0.60844 -0.58468,-1.49892 -0.58468,-2.67143 0,-1.21054 0.18856,-2.10894 0.56566,-2.6952 0.37711,-0.58625 0.95227,-0.87938 1.7255,-0.87939 0.75421,10e-6 1.32621,0.30581 1.71599,0.91741 0.39295,0.61162 0.58942,1.49734 0.58943,2.65718 m -3.798,0 c 0,1.0109 0.11884,1.74768 0.35651,2.21034 0.23767,0.4595 0.61636,0.68925 1.13607,0.68925 0.52605,0 0.90632,-0.23291 1.14083,-0.69875 0.23766,-0.46901 0.3565,-1.20262 0.3565,-2.20084 0,-0.99822 -0.11884,-1.72867 -0.3565,-2.19134 -0.23451,-0.46583 -0.61478,-0.69875 -1.14083,-0.69875 -0.51971,0 -0.8984,0.22975 -1.13607,0.68924 -0.23767,0.45634 -0.35651,1.18995 -0.35651,2.20085"
         id="path3928"
         style="font-variant:normal;font-stretch:normal;font-family:Open Sans;-inkscape-font-specification:Open Sans" />
    </g>
    <g
       transform="translate(-4.2857143,0)"
       id="text3829"
       style="font-size:9.73504162px;font-style:normal;font-weight:normal;line-height:125%;letter-spacing:0px;word-spacing:0px;fill:#4907ff;fill-opacity:1;stroke:none;font-family:Sans">
      <path
         d="m 415.07868,604.46538 c 0,0.44366 -0.12518,0.8065 -0.37552,1.08854 -0.24718,0.28204 -0.59894,0.47059 -1.05526,0.56566 l 0,0.038 c 0.55773,0.0697 0.97128,0.24719 1.24064,0.53239 0.26936,0.28521 0.40404,0.65915 0.40405,1.12181 -1e-5,0.66231 -0.22976,1.17252 -0.68925,1.53061 -0.45951,0.35492 -1.11231,0.53238 -1.95842,0.53238 -0.3676,0 -0.70509,-0.0285 -1.01248,-0.0856 -0.30422,-0.0539 -0.60052,-0.15052 -0.88889,-0.28996 l 0,-0.75104 c 0.30105,0.14894 0.62111,0.26302 0.96019,0.34225 0.34225,0.0761 0.66548,0.11408 0.9697,0.11408 1.20103,0 1.80155,-0.47059 1.80155,-1.41177 0,-0.84294 -0.66231,-1.26441 -1.98693,-1.26442 l -0.6845,0 0,-0.67974 0.694,0 c 0.54189,0 0.97129,-0.11883 1.28819,-0.35651 0.31689,-0.24083 0.47534,-0.57357 0.47534,-0.99822 0,-0.33907 -0.11726,-0.60526 -0.35175,-0.79858 -0.23134,-0.1933 -0.54665,-0.28995 -0.94594,-0.28996 -0.30422,10e-6 -0.59101,0.0412 -0.86037,0.12359 -0.26936,0.0824 -0.57675,0.23451 -0.92217,0.45633 l -0.39929,-0.53238 c 0.28521,-0.22499 0.6132,-0.40087 0.98396,-0.52763 0.37394,-0.12992 0.76689,-0.19489 1.17886,-0.19489 0.67498,0 1.19944,0.15528 1.57339,0.46583 0.37393,0.3074 0.5609,0.73045 0.5609,1.26917"
         id="path3913"
         style="font-variant:normal;font-stretch:normal;font-family:Open Sans;-inkscape-font-specification:Open Sans" />
      <path
         d="m 416.59027,609.27586 c 0,-0.21232 0.0475,-0.37235 0.14261,-0.4801 0.0982,-0.11091 0.23767,-0.16637 0.4183,-0.16637 0.1838,0 0.3264,0.0555 0.42781,0.16637 0.10457,0.10775 0.15686,0.26778 0.15686,0.4801 0,0.20598 -0.0523,0.36443 -0.15686,0.47534 -0.10458,0.11092 -0.24718,0.16637 -0.42781,0.16637 -0.16162,0 -0.2963,-0.0491 -0.40404,-0.14735 -0.10458,-0.10141 -0.15687,-0.2662 -0.15687,-0.49436"
         id="path3915"
         style="font-variant:normal;font-stretch:normal;font-family:Open Sans;-inkscape-font-specification:Open Sans" />
      <path
         d="m 423.53505,606.29545 c -1e-5,1.20104 -0.19014,2.09786 -0.57041,2.69045 -0.37711,0.5926 -0.95545,0.88889 -1.73501,0.88889 -0.74788,0 -1.3167,-0.30263 -1.70648,-0.9079 -0.38979,-0.60844 -0.58468,-1.49892 -0.58468,-2.67144 0,-1.21053 0.18856,-2.10893 0.56566,-2.6952 0.37711,-0.58625 0.95227,-0.87937 1.7255,-0.87938 0.75421,10e-6 1.32621,0.30581 1.71599,0.91741 0.39295,0.61162 0.58942,1.49734 0.58943,2.65717 m -3.798,0 c 0,1.0109 0.11884,1.74769 0.35651,2.21035 0.23767,0.4595 0.61636,0.68925 1.13607,0.68925 0.52604,0 0.90632,-0.23292 1.14083,-0.69875 0.23766,-0.46901 0.3565,-1.20262 0.3565,-2.20085 0,-0.99821 -0.11884,-1.72866 -0.3565,-2.19133 -0.23451,-0.46583 -0.61479,-0.69875 -1.14083,-0.69876 -0.51971,10e-6 -0.8984,0.22976 -1.13607,0.68925 -0.23767,0.45634 -0.35651,1.18995 -0.35651,2.20084"
         id="path3917"
         style="font-variant:normal;font-stretch:normal;font-family:Open Sans;-inkscape-font-specification:Open Sans" />
      <path
         d="m 429.10608,606.29545 c -1e-5,1.20104 -0.19014,2.09786 -0.57041,2.69045 -0.37711,0.5926 -0.95545,0.88889 -1.73501,0.88889 -0.74788,0 -1.3167,-0.30263 -1.70648,-0.9079 -0.38979,-0.60844 -0.58468,-1.49892 -0.58468,-2.67144 0,-1.21053 0.18856,-2.10893 0.56566,-2.6952 0.37711,-0.58625 0.95227,-0.87937 1.7255,-0.87938 0.75421,10e-6 1.32621,0.30581 1.71599,0.91741 0.39295,0.61162 0.58942,1.49734 0.58943,2.65717 m -3.798,0 c 0,1.0109 0.11884,1.74769 0.35651,2.21035 0.23767,0.4595 0.61636,0.68925 1.13607,0.68925 0.52604,0 0.90632,-0.23292 1.14083,-0.69875 0.23766,-0.46901 0.3565,-1.20262 0.3565,-2.20085 0,-0.99821 -0.11884,-1.72866 -0.3565,-2.19133 -0.23451,-0.46583 -0.61479,-0.69875 -1.14083,-0.69876 -0.51971,10e-6 -0.8984,0.22976 -1.13607,0.68925 -0.23767,0.45634 -0.35651,1.18995 -0.35651,2.20084"
         id="path3919"
         style="font-variant:normal;font-stretch:normal;font-family:Open Sans;-inkscape-font-specification:Open Sans" />
    </g>
  </g>
</svg>
